# xmcd
#
# Track frame offsets: 
#        150
#        17323
#        28709
#        39797
#        54543
#        69422
#        85623
#        109936
#        129022
#        144293
#        157753
#        173614
#
# Disc length: 2496 seconds
#
# Revision: 0
# Processed by: cddbd v1.5.2PL0 Copyright (c) Steve Scherf et al.
# Submitted via: ExactAudioCopyFreeDBPlugin 1.0
#
DISCID=7c09be0c
DTITLE=Jussi and The Boys - Unioninkatu 45 (2018)
DYEAR=2018
DGENRE=Country
TTITLE0=Kun Saavun Ouluun (By The Time I Get To Phoenix) [2018]
TTITLE1=Tunteeton (Without Love) [2018]
TTITLE2=Jokseenkin Hyvin Vaatimaton Mies [2018]
TTITLE3=Tuuli Kuiskaa Vain (Catch The Wind) [2018]
TTITLE4=Kiitollinen (A Saticfied Mind) [2018]
TTITLE5=Vanhan Liiton Mies [2018]
TTITLE6=Tommie B. Goode (Johnny B. Goode) [2018]
TTITLE7=Ilman Sinua [2018]
TTITLE8=Petollinen Kuu [2018]
TTITLE9=S'on Lyttyp‰‰hommaa (Too Much Monkey Business) [2018]
TTITLE10=Yht‰ Onnellinen [2018]
TTITLE11=Hallelujaa H‰nt‰ Rakastan! (Hallelujah I Love Her So) [2018]
EXTD=
EXTT0=
EXTT1=
EXTT2=
EXTT3=
EXTT4=
EXTT5=
EXTT6=
EXTT7=
EXTT8=
EXTT9=
EXTT10=
EXTT11=
PLAYORDER=
